<mxfile host="65bd71144e">
    <diagram name="Architecture Diagram" id="qT1MYwDv3pa1xlJBst-X">
        <mxGraphModel dx="1127" dy="590" grid="1" gridSize="10" guides="1" tooltips="1" connect="1" arrows="1" fold="1" page="1" pageScale="1" pageWidth="1169" pageHeight="827" background="none" math="0" shadow="0">
            <root>
                <mxCell id="0"/>
                <mxCell id="1" parent="0"/>
                <mxCell id="2" value="Input" style="swimlane;whiteSpace=wrap;html=1;swimlaneLine=1;shadow=0;rounded=0;" parent="1" vertex="1">
                    <mxGeometry x="30" y="170" width="160" height="310" as="geometry"/>
                </mxCell>
                <mxCell id="3" value="End user&lt;br&gt;Website" style="rounded=0;whiteSpace=wrap;html=1;swimlaneLine=1;shadow=0;" parent="2" vertex="1">
                    <mxGeometry x="20" y="40" width="120" height="60" as="geometry"/>
                </mxCell>
                <mxCell id="4" value="Functions" style="swimlane;whiteSpace=wrap;html=1;swimlaneLine=1;shadow=0;rounded=0;" parent="1" vertex="1">
                    <mxGeometry x="230" y="170" width="710" height="310" as="geometry">
                        <mxRectangle x="190" y="10" width="100" height="30" as="alternateBounds"/>
                    </mxGeometry>
                </mxCell>
                <mxCell id="44" value="Docker container" style="swimlane;whiteSpace=wrap;html=1;swimlaneLine=1;shadow=0;rounded=0;" parent="4" vertex="1">
                    <mxGeometry x="280" y="40" width="150" height="250" as="geometry"/>
                </mxCell>
                <mxCell id="31" value="MQTT broker" style="rounded=0;whiteSpace=wrap;html=1;swimlaneLine=1;shadow=0;" parent="44" vertex="1">
                    <mxGeometry x="15" y="40" width="120" height="60" as="geometry"/>
                </mxCell>
                <mxCell id="38" value="Server" style="rounded=0;whiteSpace=wrap;html=1;swimlaneLine=1;shadow=0;" parent="44" vertex="1">
                    <mxGeometry x="14.5" y="130" width="120" height="100" as="geometry"/>
                </mxCell>
                <mxCell id="43" style="edgeStyle=orthogonalEdgeStyle;rounded=0;html=1;exitX=0.5;exitY=0;exitDx=0;exitDy=0;entryX=0.5;entryY=1;entryDx=0;entryDy=0;swimlaneLine=1;shadow=0;" parent="44" source="38" target="31" edge="1">
                    <mxGeometry relative="1" as="geometry"/>
                </mxCell>
                <mxCell id="50" value="Docker container" style="swimlane;whiteSpace=wrap;html=1;swimlaneLine=1;shadow=0;rounded=0;" parent="4" vertex="1">
                    <mxGeometry x="20" y="40" width="150" height="200" as="geometry"/>
                </mxCell>
                <mxCell id="39" value="Webserver" style="rounded=0;whiteSpace=wrap;html=1;swimlaneLine=1;shadow=0;" parent="50" vertex="1">
                    <mxGeometry x="14.5" y="40" width="120" height="80" as="geometry"/>
                </mxCell>
                <mxCell id="51" style="edgeStyle=orthogonalEdgeStyle;rounded=0;html=1;exitX=1;exitY=0.5;exitDx=0;exitDy=0;entryX=0;entryY=0.5;entryDx=0;entryDy=0;swimlaneLine=1;shadow=0;" parent="4" source="39" target="38" edge="1">
                    <mxGeometry relative="1" as="geometry"/>
                </mxCell>
                <mxCell id="53" value="ESP23" style="swimlane;whiteSpace=wrap;html=1;swimlaneLine=1;shadow=0;rounded=0;" parent="4" vertex="1">
                    <mxGeometry x="560" y="43" width="125" height="107" as="geometry"/>
                </mxCell>
                <mxCell id="32" value="WLED" style="rounded=0;whiteSpace=wrap;html=1;swimlaneLine=1;shadow=0;" parent="53" vertex="1">
                    <mxGeometry x="12.5" y="30" width="100" height="70" as="geometry"/>
                </mxCell>
                <mxCell id="54" value="ESP23" style="swimlane;whiteSpace=wrap;html=1;swimlaneLine=1;shadow=0;rounded=0;" parent="4" vertex="1">
                    <mxGeometry x="560" y="160" width="125" height="110" as="geometry"/>
                </mxCell>
                <mxCell id="33" value="WLED" style="rounded=0;whiteSpace=wrap;html=1;swimlaneLine=1;shadow=0;" parent="54" vertex="1">
                    <mxGeometry x="12.5" y="31" width="100" height="69" as="geometry"/>
                </mxCell>
                <mxCell id="5" value="Output" style="swimlane;whiteSpace=wrap;html=1;swimlaneLine=1;shadow=0;rounded=0;" parent="1" vertex="1">
                    <mxGeometry x="980" y="170" width="160" height="310" as="geometry"/>
                </mxCell>
                <mxCell id="14" value="Corridor" style="rounded=0;whiteSpace=wrap;html=1;swimlaneLine=1;shadow=0;" parent="5" vertex="1">
                    <mxGeometry x="20" y="78" width="120" height="60" as="geometry"/>
                </mxCell>
                <mxCell id="15" value="Corridor" style="rounded=0;whiteSpace=wrap;html=1;swimlaneLine=1;shadow=0;" parent="5" vertex="1">
                    <mxGeometry x="20" y="195.5" width="120" height="60" as="geometry"/>
                </mxCell>
                <mxCell id="47" style="edgeStyle=orthogonalEdgeStyle;rounded=0;html=1;exitX=1;exitY=0.5;exitDx=0;exitDy=0;entryX=0;entryY=0.5;entryDx=0;entryDy=0;swimlaneLine=1;shadow=0;" parent="1" source="33" target="15" edge="1">
                    <mxGeometry relative="1" as="geometry"/>
                </mxCell>
                <mxCell id="46" style="edgeStyle=orthogonalEdgeStyle;rounded=0;html=1;exitX=1;exitY=0.5;exitDx=0;exitDy=0;entryX=0;entryY=0.5;entryDx=0;entryDy=0;swimlaneLine=1;shadow=0;" parent="1" source="32" target="14" edge="1">
                    <mxGeometry relative="1" as="geometry"/>
                </mxCell>
                <mxCell id="24" value="Cloud" style="swimlane;whiteSpace=wrap;html=1;swimlaneLine=1;shadow=0;rounded=0;" parent="1" vertex="1">
                    <mxGeometry x="485" y="20" width="200" height="130" as="geometry"/>
                </mxCell>
                <mxCell id="25" value="MQTT" style="rounded=0;whiteSpace=wrap;html=1;swimlaneLine=1;shadow=0;" parent="24" vertex="1">
                    <mxGeometry x="40" y="40" width="120" height="60" as="geometry"/>
                </mxCell>
                <mxCell id="35" style="edgeStyle=orthogonalEdgeStyle;rounded=0;html=1;exitX=1;exitY=0.5;exitDx=0;exitDy=0;entryX=0;entryY=0.5;entryDx=0;entryDy=0;swimlaneLine=1;shadow=0;" parent="1" source="25" target="33" edge="1">
                    <mxGeometry relative="1" as="geometry"/>
                </mxCell>
                <mxCell id="36" style="edgeStyle=orthogonalEdgeStyle;rounded=0;html=1;exitX=1;exitY=0.5;exitDx=0;exitDy=0;entryX=0;entryY=0.5;entryDx=0;entryDy=0;swimlaneLine=1;shadow=0;" parent="1" source="25" target="32" edge="1">
                    <mxGeometry relative="1" as="geometry"/>
                </mxCell>
                <mxCell id="56" style="edgeStyle=orthogonalEdgeStyle;rounded=0;html=1;exitX=1;exitY=0.5;exitDx=0;exitDy=0;entryX=0;entryY=0.5;entryDx=0;entryDy=0;swimlaneLine=1;shadow=0;" parent="1" source="3" target="39" edge="1">
                    <mxGeometry relative="1" as="geometry"/>
                </mxCell>
                <mxCell id="57" style="edgeStyle=orthogonalEdgeStyle;rounded=0;html=1;exitX=0;exitY=0.5;exitDx=0;exitDy=0;entryX=0;entryY=0.5;entryDx=0;entryDy=0;swimlaneLine=1;shadow=0;" parent="1" source="31" target="25" edge="1">
                    <mxGeometry relative="1" as="geometry"/>
                </mxCell>
            </root>
        </mxGraphModel>
    </diagram>
</mxfile>